<mxfile host="app.diagrams.net" agent="Mozilla/5.0 (Macintosh; Intel Mac OS X 10_15_7) AppleWebKit/537.36 (KHTML, like Gecko) Chrome/131.0.0.0 Safari/537.36" version="26.0.5">
  <diagram name="第 1 页" id="w1izd6LmI9ZngV3Tab6v">
    <mxGraphModel dx="1026" dy="660" grid="1" gridSize="10" guides="1" tooltips="1" connect="1" arrows="1" fold="1" page="1" pageScale="1" pageWidth="827" pageHeight="1169" math="0" shadow="0">
      <root>
        <mxCell id="0" />
        <mxCell id="1" parent="0" />
        <mxCell id="wB6Vkpg178uaQ_Uieydi-1" value="&lt;font style=&quot;font-size: 18px; color: rgb(77, 77, 77);&quot;&gt;IMP1&lt;/font&gt;" style="rounded=1;whiteSpace=wrap;html=1;strokeColor=#97D077;strokeWidth=2;" vertex="1" parent="1">
          <mxGeometry x="310" y="210" width="90" height="40" as="geometry" />
        </mxCell>
        <mxCell id="wB6Vkpg178uaQ_Uieydi-8" value="" style="edgeStyle=orthogonalEdgeStyle;rounded=0;orthogonalLoop=1;jettySize=auto;html=1;shape=flexArrow;endWidth=7;endSize=9.33;fillColor=#D5E8D4;strokeColor=#B9E0A5;endArrow=block;fillStyle=auto;sketch=1;curveFitting=1;jiggle=2;" edge="1" parent="1" source="wB6Vkpg178uaQ_Uieydi-5" target="wB6Vkpg178uaQ_Uieydi-1">
          <mxGeometry relative="1" as="geometry" />
        </mxCell>
        <mxCell id="wB6Vkpg178uaQ_Uieydi-5" value="&lt;font style=&quot;font-size: 18px; color: rgb(77, 77, 77);&quot;&gt;SEL1&lt;/font&gt;" style="rounded=1;whiteSpace=wrap;html=1;strokeColor=#97D077;strokeWidth=2;fillColor=default;" vertex="1" parent="1">
          <mxGeometry x="150" y="210" width="90" height="40" as="geometry" />
        </mxCell>
        <mxCell id="wB6Vkpg178uaQ_Uieydi-6" value="&lt;font style=&quot;font-size: 18px; color: rgb(77, 77, 77);&quot;&gt;SEL2&lt;/font&gt;" style="rounded=1;whiteSpace=wrap;html=1;strokeColor=#97D077;strokeWidth=2;" vertex="1" parent="1">
          <mxGeometry x="150" y="270" width="90" height="40" as="geometry" />
        </mxCell>
        <mxCell id="wB6Vkpg178uaQ_Uieydi-7" value="&lt;font style=&quot;font-size: 18px; color: rgb(77, 77, 77);&quot;&gt;IMP2&lt;/font&gt;" style="rounded=1;whiteSpace=wrap;html=1;strokeColor=#97D077;strokeWidth=2;" vertex="1" parent="1">
          <mxGeometry x="310" y="270" width="90" height="40" as="geometry" />
        </mxCell>
        <mxCell id="wB6Vkpg178uaQ_Uieydi-10" value="" style="edgeStyle=orthogonalEdgeStyle;rounded=0;orthogonalLoop=1;jettySize=auto;html=1;shape=flexArrow;endWidth=7;endSize=9.33;fillColor=#D5E8D4;strokeColor=#B9E0A5;endArrow=block;fillStyle=auto;sketch=1;curveFitting=1;jiggle=2;exitX=1;exitY=0.5;exitDx=0;exitDy=0;entryX=0;entryY=0.5;entryDx=0;entryDy=0;" edge="1" parent="1" source="wB6Vkpg178uaQ_Uieydi-6" target="wB6Vkpg178uaQ_Uieydi-7">
          <mxGeometry relative="1" as="geometry">
            <mxPoint x="250" y="240" as="sourcePoint" />
            <mxPoint x="320" y="240" as="targetPoint" />
          </mxGeometry>
        </mxCell>
        <mxCell id="wB6Vkpg178uaQ_Uieydi-11" value="&lt;font style=&quot;font-size: 18px; color: rgb(77, 77, 77);&quot;&gt;IMP1&lt;/font&gt;" style="rounded=1;whiteSpace=wrap;html=1;strokeColor=#97D077;strokeWidth=2;" vertex="1" parent="1">
          <mxGeometry x="650" y="210" width="90" height="40" as="geometry" />
        </mxCell>
        <mxCell id="wB6Vkpg178uaQ_Uieydi-12" value="" style="rounded=0;orthogonalLoop=1;jettySize=auto;html=1;shape=flexArrow;endWidth=7;endSize=9.33;fillColor=#FFE599;strokeColor=#FFD966;endArrow=block;fillStyle=auto;sketch=1;curveFitting=1;jiggle=2;entryX=0;entryY=0.5;entryDx=0;entryDy=0;exitX=1;exitY=0.5;exitDx=0;exitDy=0;" edge="1" parent="1" source="wB6Vkpg178uaQ_Uieydi-13" target="wB6Vkpg178uaQ_Uieydi-15">
          <mxGeometry relative="1" as="geometry" />
        </mxCell>
        <mxCell id="wB6Vkpg178uaQ_Uieydi-13" value="&lt;font style=&quot;font-size: 18px; color: rgb(77, 77, 77);&quot;&gt;SEL1&lt;/font&gt;" style="rounded=1;whiteSpace=wrap;html=1;strokeColor=#97D077;strokeWidth=2;fillColor=default;" vertex="1" parent="1">
          <mxGeometry x="490" y="210" width="90" height="40" as="geometry" />
        </mxCell>
        <mxCell id="wB6Vkpg178uaQ_Uieydi-14" value="&lt;font style=&quot;font-size: 18px; color: rgb(77, 77, 77);&quot;&gt;SEL2&lt;/font&gt;" style="rounded=1;whiteSpace=wrap;html=1;strokeColor=#97D077;strokeWidth=2;" vertex="1" parent="1">
          <mxGeometry x="490" y="270" width="90" height="40" as="geometry" />
        </mxCell>
        <mxCell id="wB6Vkpg178uaQ_Uieydi-15" value="&lt;font style=&quot;font-size: 18px; color: rgb(77, 77, 77);&quot;&gt;IMP2&lt;/font&gt;" style="rounded=1;whiteSpace=wrap;html=1;strokeColor=#97D077;strokeWidth=2;" vertex="1" parent="1">
          <mxGeometry x="650" y="270" width="90" height="40" as="geometry" />
        </mxCell>
        <mxCell id="wB6Vkpg178uaQ_Uieydi-16" value="" style="rounded=0;orthogonalLoop=1;jettySize=auto;html=1;shape=flexArrow;endWidth=7;endSize=9.33;fillColor=#FFE599;strokeColor=#FFD966;endArrow=block;fillStyle=auto;sketch=1;curveFitting=1;jiggle=2;exitX=1;exitY=0.5;exitDx=0;exitDy=0;entryX=0;entryY=0.5;entryDx=0;entryDy=0;" edge="1" parent="1" source="wB6Vkpg178uaQ_Uieydi-14" target="wB6Vkpg178uaQ_Uieydi-11">
          <mxGeometry relative="1" as="geometry">
            <mxPoint x="590" y="240" as="sourcePoint" />
            <mxPoint x="660" y="240" as="targetPoint" />
          </mxGeometry>
        </mxCell>
      </root>
    </mxGraphModel>
  </diagram>
</mxfile>
